# xmcd
#
# Track frame offsets: 
#        150
#        18175
#        37162
#        54689
#        74924
#        93666
#        116144
#        136761
#        153973
#        181518
#        204374
#        225195
#
# Disc length: 3211 seconds
#
# Revision: 0
# Processed by: cddbd v1.5.2PL0 Copyright (c) Steve Scherf et al.
# Submitted via: ExactAudioCopy v1.3
#
DISCID=9c0c890c
DTITLE=Dana Gillespie - Under My Bed
DYEAR=2019
DGENRE=Blues
TTITLE0=Big Mouth
TTITLE1=Old School
TTITLE2=I'm In Chains
TTITLE3=More Fool Me
TTITLE4=See You On The Other Side
TTITLE5=Va Va Voom
TTITLE6=Another Heart Breaks
TTITLE7=Under My Bed
TTITLE8=High Cost
TTITLE9=Walk In Love Today
TTITLE10=Punch The Air
TTITLE11=Beats Working
EXTD=
EXTT0=
EXTT1=
EXTT2=
EXTT3=
EXTT4=
EXTT5=
EXTT6=
EXTT7=
EXTT8=
EXTT9=
EXTT10=
EXTT11=
PLAYORDER=
